<?xml version="1.0" encoding="utf-8"?>
<!-- Generator: Adobe Illustrator 22.1.0, SVG Export Plug-In . SVG Version: 6.00 Build 0)  -->
<svg version="1.1" id="Layer_1" xmlns="http://www.w3.org/2000/svg" xmlns:xlink="http://www.w3.org/1999/xlink" x="0px" y="0px"
	 viewBox="0 0 24 24" style="enable-background:new 0 0 24 24;" fill="#FFFFFF" xml:space="preserve">
<title>delivery-truck</title>
<g>
	<path d="M18.75,24c-0.96,0-1.808-0.615-2.121-1.5h-3.257C13.058,23.385,12.21,24,11.25,24c-0.96,0-1.808-0.615-2.121-1.5H8.25
		C7.009,22.5,6,21.491,6,20.25v-6C6,13.009,7.009,12,8.25,12h7.5c0.96,0,1.808,0.615,2.121,1.5h2.379c2.068,0,3.75,1.682,3.75,3.75
		v4.5c0,0.414-0.336,0.75-0.75,0.75h-2.379C20.558,23.385,19.71,24,18.75,24z M18.75,21C18.336,21,18,21.336,18,21.75
		s0.336,0.75,0.75,0.75s0.75-0.336,0.75-0.75S19.164,21,18.75,21z M11.25,21c-0.414,0-0.75,0.336-0.75,0.75s0.336,0.75,0.75,0.75
		S12,22.164,12,21.75S11.664,21,11.25,21z M22.5,21v-3.75c0-1.241-1.009-2.25-2.25-2.25H18v4.629
		c0.239-0.085,0.491-0.129,0.75-0.129c0.96,0,1.808,0.615,2.121,1.5H22.5z M16.5,21v-6.75c0-0.414-0.336-0.75-0.75-0.75h-7.5
		c-0.414,0-0.75,0.336-0.75,0.75v6C7.5,20.664,7.836,21,8.25,21h0.879c0.314-0.885,1.162-1.5,2.121-1.5
		c0.96,0,1.808,0.615,2.121,1.5H16.5z"/>
	<path d="M2.25,19.5C1.009,19.5,0,18.491,0,17.25V6.75c0-0.596,0.231-1.156,0.651-1.58l2.777-4.168C3.846,0.375,4.546,0,5.3,0h8.9
		c0.753,0.002,1.452,0.376,1.869,1.002L18.85,5.17c0.42,0.425,0.65,0.984,0.65,1.58v3c0,0.414-0.336,0.75-0.75,0.75
		S18,10.164,18,9.75v-3C18,6.336,17.664,6,17.25,6h-15C1.836,6,1.5,6.336,1.5,6.75v10.5C1.5,17.664,1.836,18,2.25,18h1.5
		c0.414,0,0.75,0.336,0.75,0.75S4.164,19.5,3.75,19.5H2.25z M16.599,4.5l-1.778-2.666c-0.139-0.209-0.372-0.334-0.623-0.334H10.5v3
		H16.599z M9,4.5v-3H5.3c-0.251,0-0.485,0.125-0.624,0.334L2.899,4.5H9z"/>
</g>
</svg>
