<?xml version="1.0" encoding="utf-8"?>
<!-- Generator: Adobe Illustrator 22.1.0, SVG Export Plug-In . SVG Version: 6.00 Build 0)  -->
<svg version="1.1" id="Regular" xmlns="http://www.w3.org/2000/svg" xmlns:xlink="http://www.w3.org/1999/xlink" x="0px" y="0px"
	 viewBox="0 0 24 24" style="enable-background:new 0 0 24 24;" xml:space="preserve">
<title>fruit-pear</title>
<g>
	<path d="M12.408,23.994c-0.142,0-0.285-0.002-0.428-0.005c-0.117,0.003-0.25,0.005-0.384,0.005c-3.013,0-5.588-0.826-7.063-2.266
		c-1.018-0.994-1.534-2.245-1.534-3.719c0.1-2.103,0.968-4.053,2.445-5.511c1.292-1.271,2.132-2.886,2.43-4.672l0.01-0.073
		c0.304-1.741,1.662-3.031,3.365-3.256c-0.007-1.648-1.35-2.987-3-2.987c-0.414,0-0.75-0.336-0.75-0.75s0.336-0.75,0.75-0.75
		c2.481,0,4.5,2.019,4.5,4.5v3c0,0.414-0.336,0.75-0.75,0.75s-0.75-0.336-0.75-0.75V6.016C10.289,6.224,9.54,6.988,9.365,7.986
		L9.356,8.053c-0.353,2.115-1.341,4.018-2.86,5.511c-1.207,1.192-1.917,2.783-1.999,4.479c0.001,1.025,0.365,1.909,1.083,2.61
		c1.199,1.17,3.384,1.841,5.995,1.841c0.134,0,0.269-0.002,0.404-0.005c0.154,0.003,0.287,0.005,0.419,0.005
		c2.625,0,4.818-0.67,6.016-1.838c0.719-0.701,1.083-1.592,1.083-2.648c-0.081-1.667-0.791-3.251-1.999-4.444
		c-1.325-1.317-2.267-2.969-2.723-4.779c-0.049-0.194-0.02-0.396,0.083-0.568c0.103-0.172,0.266-0.294,0.46-0.343
		c0.061-0.015,0.122-0.023,0.184-0.023c0.344,0,0.643,0.233,0.727,0.567c0.39,1.546,1.194,2.957,2.324,4.08
		c1.476,1.457,2.343,3.401,2.442,5.474c0.001,1.505-0.516,2.764-1.535,3.758C17.987,23.169,15.416,23.994,12.408,23.994z"/>
	<path d="M15.165,6.69c-0.721,0-1.362-0.458-1.594-1.14c-0.112-0.33-0.119-0.694-0.019-1.027c0.212-1.099,0.726-2.113,1.487-2.933
		c0.015-0.016,0.028-0.029,0.042-0.042c0.818-0.761,1.833-1.276,2.934-1.488c0.157-0.047,0.32-0.071,0.483-0.071
		c0.721,0,1.362,0.458,1.594,1.14c0.112,0.33,0.119,0.694,0.019,1.027c-0.212,1.101-0.726,2.116-1.489,2.936
		c-0.012,0.013-0.025,0.026-0.039,0.039c-0.821,0.762-1.835,1.276-2.935,1.487C15.491,6.667,15.328,6.69,15.165,6.69z M16.12,2.631
		c-0.568,0.62-0.949,1.384-1.101,2.211c-0.007,0.037-0.016,0.071-0.028,0.105c-0.013,0.038-0.013,0.081,0,0.119
		c0.025,0.074,0.095,0.124,0.173,0.124c0.02,0,0.039-0.003,0.059-0.01c0.036-0.012,0.071-0.021,0.106-0.028
		c0.828-0.152,1.593-0.533,2.213-1.101c0.569-0.62,0.95-1.385,1.103-2.214c0.007-0.037,0.016-0.072,0.028-0.105
		c0.013-0.038,0.013-0.081,0-0.118c-0.029-0.086-0.108-0.124-0.174-0.124c-0.02,0-0.04,0.003-0.059,0.01
		c-0.035,0.012-0.07,0.021-0.106,0.028C17.505,1.68,16.74,2.061,16.12,2.631z"/>
</g>
</svg>
