<?xml version="1.0" encoding="utf-8"?>
<!-- Generator: Adobe Illustrator 22.1.0, SVG Export Plug-In . SVG Version: 6.00 Build 0)  -->
<svg version="1.1" id="Layer_1" xmlns="http://www.w3.org/2000/svg" xmlns:xlink="http://www.w3.org/1999/xlink" x="0px" y="0px"
	 viewBox="0 0 24 24" style="enable-background:new 0 0 24 24;" xml:space="preserve">
<title>shipment-cash</title>
<g>
	<path d="M17.25,21.75c-0.414,0-0.75-0.336-0.75-0.75h-0.75C15.336,21,15,20.664,15,20.25s0.336-0.75,0.75-0.75h2.031
		c0.242,0,0.458-0.146,0.548-0.371c0.059-0.146,0.057-0.307-0.005-0.453c-0.062-0.146-0.177-0.259-0.323-0.317l-2.063-0.826
		c-0.797-0.321-1.312-1.082-1.312-1.94c0-0.559,0.217-1.084,0.612-1.48c0.344-0.344,0.786-0.554,1.262-0.603V13.5
		c0-0.414,0.336-0.75,0.75-0.75S18,13.086,18,13.5h0.75c0.414,0,0.75,0.336,0.75,0.75S19.164,15,18.75,15h-2.033
		c-0.326,0-0.591,0.266-0.591,0.593c0,0.243,0.146,0.458,0.371,0.549l2.063,0.826c1.071,0.431,1.592,1.652,1.161,2.722
		c-0.292,0.728-0.954,1.22-1.721,1.3V21C18,21.414,17.664,21.75,17.25,21.75z"/>
	<path d="M17.25,24c-3.722,0-6.75-3.028-6.75-6.75s3.028-6.75,6.75-6.75S24,13.528,24,17.25S20.972,24,17.25,24z M17.25,12
		C14.355,12,12,14.355,12,17.25s2.355,5.25,5.25,5.25s5.25-2.355,5.25-5.25S20.145,12,17.25,12z"/>
	<path d="M2.25,19.5C1.009,19.5,0,18.491,0,17.25V6.75c0-0.596,0.231-1.156,0.651-1.58l2.777-4.168C3.846,0.375,4.546,0,5.3,0h8.9
		c0.753,0.002,1.452,0.376,1.869,1.002L18.85,5.17c0.42,0.425,0.65,0.984,0.65,1.58v1.5C19.5,8.664,19.164,9,18.75,9
		S18,8.664,18,8.25v-1.5C18,6.336,17.664,6,17.25,6h-15C1.836,6,1.5,6.336,1.5,6.75v10.5C1.5,17.664,1.836,18,2.25,18h6
		C8.664,18,9,18.336,9,18.75S8.664,19.5,8.25,19.5H2.25z M16.599,4.5l-1.778-2.666c-0.139-0.209-0.372-0.334-0.623-0.334H10.5v3
		H16.599z M9,4.5v-3H5.3c-0.251,0-0.485,0.125-0.624,0.334L2.899,4.5H9z"/>
</g>
</svg>
