<?xml version="1.0" encoding="utf-8"?>
<!-- Generator: Adobe Illustrator 22.1.0, SVG Export Plug-In . SVG Version: 6.00 Build 0)  -->
<svg version="1.1" id="Layer_1" xmlns="http://www.w3.org/2000/svg" xmlns:xlink="http://www.w3.org/1999/xlink" x="0px" y="0px"
	 viewBox="0 0 24 24" style="enable-background:new 0 0 24 24;" xml:space="preserve">
<title>shipment-in-transit</title>
<g>
	<path d="M3.702,15.46c-0.117,0-0.235-0.028-0.339-0.081l-2.936-1.487c-0.179-0.09-0.312-0.245-0.374-0.435
		s-0.047-0.394,0.043-0.572c0.129-0.254,0.385-0.411,0.67-0.411c0.117,0,0.234,0.028,0.339,0.081l2.936,1.487
		c0.179,0.09,0.312,0.245,0.374,0.435s0.047,0.394-0.043,0.572C4.243,15.302,3.987,15.46,3.702,15.46z"/>
	<path d="M3.671,11.491c-0.123,0-0.245-0.031-0.354-0.089L0.505,9.896C0.329,9.801,0.199,9.644,0.141,9.452S0.104,9.057,0.198,8.881
		C0.329,8.637,0.583,8.485,0.86,8.485c0.123,0,0.245,0.031,0.354,0.089l2.812,1.506c0.177,0.095,0.306,0.252,0.364,0.444
		s0.038,0.395-0.057,0.571C4.202,11.339,3.948,11.491,3.671,11.491z"/>
	<path d="M3.733,7.71c-0.139,0-0.275-0.039-0.393-0.112L1.651,6.557c-0.171-0.105-0.29-0.27-0.336-0.465
		C1.268,5.897,1.301,5.696,1.406,5.525c0.137-0.223,0.376-0.357,0.639-0.357c0.139,0,0.275,0.039,0.393,0.112l1.689,1.041
		c0.352,0.217,0.462,0.68,0.245,1.032C4.234,7.577,3.996,7.71,3.733,7.71z"/>
	<path d="M14.937,21.457c-0.424-0.007-0.844-0.112-1.217-0.303l-6.186-3.16c-0.961-0.498-1.554-1.477-1.55-2.556V8.562
		C5.979,7.486,6.57,6.508,7.528,6.011l6.192-3.164c0.389-0.198,0.825-0.303,1.264-0.303c0.438,0,0.875,0.105,1.264,0.303
		l6.187,3.162c0.434,0.225,0.805,0.56,1.076,0.971c0.002,0.003,0.003,0.005,0.005,0.008c0.309,0.473,0.471,1.018,0.468,1.578v6.875
		c0.005,1.076-0.586,2.054-1.545,2.551l-6.191,3.163c-0.374,0.192-0.796,0.296-1.221,0.302c-0.015,0.001-0.032,0.002-0.043,0.002
		C14.971,21.46,14.953,21.459,14.937,21.457z M15.733,19.733l6.019-3.075c0.453-0.235,0.734-0.7,0.731-1.213V8.562
		c0-0.025,0-0.051-0.002-0.076l-2.623,1.34v2.453c0,0.414-0.336,0.75-0.75,0.75s-0.75-0.336-0.75-0.75v-1.687l-2.625,1.341V19.733z
		 M7.483,8.559v6.882c-0.002,0.516,0.28,0.983,0.736,1.219l6.014,3.073v-7.799L7.485,8.485C7.484,8.51,7.483,8.534,7.483,8.559z
		 M14.983,10.632l2.476-1.265l-6.601-3.373L8.383,7.259L14.983,10.632z M19.108,8.524l2.477-1.265l-6.02-3.077
		c-0.178-0.091-0.379-0.139-0.581-0.139s-0.403,0.048-0.581,0.139l-1.896,0.969L19.108,8.524z"/>
</g>
</svg>
