<?xml version="1.0" encoding="utf-8"?>
<!-- Generator: Adobe Illustrator 22.1.0, SVG Export Plug-In . SVG Version: 6.00 Build 0)  -->
<svg version="1.1" id="Layer_1" xmlns="http://www.w3.org/2000/svg" xmlns:xlink="http://www.w3.org/1999/xlink" x="0px" y="0px"
	 viewBox="0 0 24 24" style="enable-background:new 0 0 24 24;" xml:space="preserve">
<title>shipment-upload</title>
<g>
	<path d="M12,24c-0.074,0-0.148-0.012-0.225-0.037c-0.019-0.005-0.037-0.01-0.054-0.017l-11.25-4.5C0.185,19.332,0,19.059,0,18.75
		V5.25c0-0.067,0.01-0.134,0.03-0.205c0.004-0.014,0.016-0.048,0.022-0.062c0.017-0.044,0.037-0.085,0.061-0.125
		c0.012-0.019,0.026-0.04,0.042-0.06C0.181,4.763,0.211,4.73,0.244,4.7c0.013-0.012,0.027-0.024,0.041-0.036
		C0.3,4.651,0.317,4.637,0.33,4.629C0.357,4.61,0.387,4.594,0.417,4.58C0.432,4.572,0.449,4.563,0.47,4.554l11.251-4.5
		C11.81,0.018,11.904,0,12,0s0.19,0.018,0.279,0.054l11.249,4.5c0.016,0.006,0.035,0.016,0.052,0.025
		c0.035,0.016,0.064,0.032,0.091,0.05c0.013,0.009,0.03,0.022,0.043,0.034c0.011,0.009,0.023,0.02,0.036,0.031
		c0.039,0.036,0.068,0.067,0.094,0.102c0.016,0.022,0.031,0.042,0.044,0.064c0.023,0.038,0.042,0.078,0.059,0.121
		c0.009,0.021,0.016,0.04,0.022,0.06C23.99,5.117,24,5.183,24,5.25v13.5c0,0.309-0.185,0.582-0.472,0.697l-11.25,4.5
		c-0.016,0.007-0.034,0.012-0.053,0.017C12.151,23.987,12.075,24,12,24z M12.75,22.142l9.75-3.9V6.358l-9.75,3.9V22.142z
		 M11.25,22.142V10.258l-9.75-3.9v11.885L11.25,22.142z M12,8.942l4.168-1.667l-9.23-3.692L2.77,5.25L12,8.942z M18.187,6.467
		L21.23,5.25L12,1.558L8.957,2.775L18.187,6.467z"/>
	<path d="M18.75,18c-0.309,0-0.582-0.185-0.696-0.472c-0.074-0.186-0.072-0.39,0.007-0.574c0.079-0.184,0.225-0.327,0.411-0.401
		l1.875-0.75c0.089-0.036,0.183-0.054,0.278-0.054c0.309,0,0.582,0.185,0.696,0.472c0.074,0.186,0.072,0.39-0.007,0.574
		c-0.079,0.184-0.225,0.327-0.411,0.401l-1.875,0.75C18.94,17.982,18.846,18,18.75,18z"/>
</g>
</svg>
