<?xml version="1.0" encoding="utf-8"?>
<!-- Generator: Adobe Illustrator 22.1.0, SVG Export Plug-In . SVG Version: 6.00 Build 0)  -->
<svg version="1.1" id="Layer_1" xmlns="http://www.w3.org/2000/svg" xmlns:xlink="http://www.w3.org/1999/xlink" x="0px" y="0px"
	 viewBox="0 0 24 24" style="enable-background:new 0 0 24 24;" fill="#76BED0" xml:space="preserve">
<title>task-list-approve</title>
<g>
	<path d="M11.25,15.011c-0.414,0-0.75-0.336-0.75-0.75s0.336-0.75,0.75-0.75h5.25c0.414,0,0.75,0.336,0.75,0.75
		s-0.336,0.75-0.75,0.75H11.25z"/>
	<path d="M11.25,19.511c-0.414,0-0.75-0.336-0.75-0.75s0.336-0.75,0.75-0.75h5.25c0.414,0,0.75,0.336,0.75,0.75
		s-0.336,0.75-0.75,0.75H11.25z"/>
	<circle cx="8.25" cy="14.261" r="1.125"/>
	<path d="M11.25,10.511c-0.414,0-0.75-0.336-0.75-0.75s0.336-0.75,0.75-0.75h5.25c0.414,0,0.75,0.336,0.75,0.75
		s-0.336,0.75-0.75,0.75H11.25z"/>
	<circle cx="8.25" cy="9.761" r="1.125"/>
	<circle cx="8.25" cy="18.761" r="1.125"/>
	<path d="M4.5,24.011c-1.241,0-2.25-1.009-2.25-2.25V6.011c0-1.241,1.009-2.25,2.25-2.25h3.063C7.924,1.633,9.81,0.011,12,0.011
		c2.19,0,4.076,1.621,4.437,3.75H19.5c1.241,0,2.25,1.009,2.25,2.25v15.75c0,1.241-1.009,2.25-2.25,2.25H4.5z M4.5,5.261
		c-0.414,0-0.75,0.336-0.75,0.75v15.75c0,0.414,0.336,0.75,0.75,0.75h15c0.414,0,0.75-0.336,0.75-0.75V6.011
		c0-0.414-0.336-0.75-0.75-0.75h-3.75c-0.414,0-0.75-0.336-0.75-0.75c0-1.654-1.346-3-3-3c-1.654,0-3,1.346-3,3
		c0,0.414-0.336,0.75-0.75,0.75H4.5z"/>
	<circle cx="12" cy="4.136" r="1.125"/>
</g>
</svg>
